<svg width="400" height="220" viewBox="0 0 400 220" fill="none" xmlns="http://www.w3.org/2000/svg">
  <defs>
    <linearGradient id="latticeBg" x1="0" y1="0" x2="1" y2="1">
      <stop offset="0%" stop-color="#111827"/>
      <stop offset="100%" stop-color="#0f172a"/>
    </linearGradient>
    <radialGradient id="latticeNode" cx="50%" cy="50%" r="60%">
      <stop offset="0%" stop-color="#fcd34d"/>
      <stop offset="100%" stop-color="#b45309"/>
    </radialGradient>
  </defs>
  <rect width="400" height="220" rx="24" fill="url(#latticeBg)"/>
  <g stroke="#fde68a" stroke-width="4" opacity="0.35">
    <path d="M60 60H340" />
    <path d="M60 110H340" />
    <path d="M60 160H340" />
    <path d="M110 30V190" />
    <path d="M170 30V190" />
    <path d="M230 30V190" />
    <path d="M290 30V190" />
  </g>
  <g>
    <circle cx="60" cy="60" r="14" fill="url(#latticeNode)" stroke="#f59e0b" stroke-width="3"/>
    <circle cx="110" cy="60" r="14" fill="url(#latticeNode)" stroke="#f59e0b" stroke-width="3"/>
    <circle cx="170" cy="60" r="14" fill="url(#latticeNode)" stroke="#f59e0b" stroke-width="3"/>
    <circle cx="230" cy="60" r="14" fill="url(#latticeNode)" stroke="#f59e0b" stroke-width="3"/>
    <circle cx="290" cy="60" r="14" fill="url(#latticeNode)" stroke="#f59e0b" stroke-width="3"/>
    <circle cx="340" cy="60" r="14" fill="url(#latticeNode)" stroke="#f59e0b" stroke-width="3"/>
    <circle cx="60" cy="110" r="14" fill="url(#latticeNode)" stroke="#f59e0b" stroke-width="3"/>
    <circle cx="110" cy="110" r="14" fill="url(#latticeNode)" stroke="#f59e0b" stroke-width="3"/>
    <circle cx="170" cy="110" r="14" fill="url(#latticeNode)" stroke="#f59e0b" stroke-width="3"/>
    <circle cx="230" cy="110" r="14" fill="url(#latticeNode)" stroke="#f59e0b" stroke-width="3"/>
    <circle cx="290" cy="110" r="14" fill="url(#latticeNode)" stroke="#f59e0b" stroke-width="3"/>
    <circle cx="340" cy="110" r="14" fill="url(#latticeNode)" stroke="#f59e0b" stroke-width="3"/>
    <circle cx="60" cy="160" r="14" fill="url(#latticeNode)" stroke="#f59e0b" stroke-width="3"/>
    <circle cx="110" cy="160" r="14" fill="url(#latticeNode)" stroke="#f59e0b" stroke-width="3"/>
    <circle cx="170" cy="160" r="14" fill="url(#latticeNode)" stroke="#f59e0b" stroke-width="3"/>
    <circle cx="230" cy="160" r="14" fill="url(#latticeNode)" stroke="#f59e0b" stroke-width="3"/>
    <circle cx="290" cy="160" r="14" fill="url(#latticeNode)" stroke="#f59e0b" stroke-width="3"/>
    <circle cx="340" cy="160" r="14" fill="url(#latticeNode)" stroke="#f59e0b" stroke-width="3"/>
  </g>
</svg>
